<?xml version="1.0" standalone="no"?>
<!DOCTYPE svg PUBLIC "-//W3C//DTD SVG 20010904//EN"
 "http://www.w3.org/TR/2001/REC-SVG-20010904/DTD/svg10.dtd">
<svg version="1.0" xmlns="http://www.w3.org/2000/svg"
 width="16.000000pt" height="16.000000pt" viewBox="0 0 16.000000 16.000000"
 preserveAspectRatio="xMidYMid meet">
<metadata>
Created by potrace 1.11, written by Peter Selinger 2001-2013
</metadata>
<g transform="translate(0.000000,16.000000) scale(0.004000,-0.004000)"
fill="#000000" stroke="none">
<path d="M1845 3430 c-27 -4 -72 -11 -99 -14 -27 -4 -53 -9 -56 -11 -4 -2 -20
-7 -37 -9 -88 -16 -268 -89 -381 -155 -238 -139 -468 -388 -575 -621 -109
-239 -146 -410 -142 -660 7 -376 147 -709 414 -980 216 -220 457 -350 760
-412 139 -28 391 -30 526 -4 170 34 401 121 499 189 140 97 184 133 276 226
219 221 344 466 399 779 18 104 22 339 7 427 -13 71 -35 179 -47 219 -11 40
-51 86 -72 82 -77 -14 -85 -39 -52 -167 14 -57 29 -131 33 -164 9 -75 9 -262
0 -335 -12 -96 -54 -251 -87 -325 -5 -11 -19 -42 -32 -70 -121 -265 -380 -516
-652 -631 -77 -33 -192 -73 -232 -80 -181 -35 -398 -39 -540 -10 -412 86 -738
334 -925 704 -55 111 -100 243 -116 342 -2 14 -8 52 -13 85 -25 160 9 458 68
600 5 11 17 40 27 65 27 67 101 198 147 260 216 289 544 486 884 527 72 9 271
9 338 1 182 -24 363 -88 512 -181 90 -56 119 -62 149 -32 32 33 31 71 -5 103
-64 61 -284 166 -429 206 -67 19 -72 20 -142 31 -25 4 -54 9 -65 12 -35 8
-288 10 -340 3z"/>
<path d="M1830 3129 c-414 -66 -765 -352 -910 -741 -23 -63 -25 -68 -50 -188
-24 -110 -21 -351 4 -455 83 -342 290 -614 586 -772 532 -283 1187 -108 1516
405 68 105 131 262 153 382 19 103 22 135 21 240 0 152 -11 215 -40 230 -26
14 -53 -14 -46 -49 30 -152 24 -303 -20 -470 -97 -371 -394 -667 -773 -769
-86 -23 -114 -26 -271 -26 -157 0 -185 3 -271 26 -408 111 -716 443 -794 858
-15 75 -14 305 1 380 85 437 393 757 834 867 103 25 324 27 435 3 120 -26 224
-63 312 -111 40 -21 77 -39 82 -39 6 0 15 9 21 21 13 24 2 41 -39 63 -210 111
-342 147 -556 151 -77 2 -165 -1 -195 -6z"/>
<path d="M2732 2714 c-17 -9 -186 -174 -375 -367 -188 -192 -353 -360 -367
-373 l-25 -24 -95 95 c-114 114 -126 122 -178 131 -102 16 -202 -67 -202 -168
0 -18 9 -51 19 -73 23 -48 353 -379 394 -394 39 -15 91 -14 130 3 29 12 442
417 799 783 107 110 117 123 123 167 14 91 -34 180 -120 220 -41 20 -61 20
-103 0z m93 -74 c39 -24 65 -74 65 -126 0 -37 -14 -52 -438 -476 -417 -418
-439 -438 -474 -438 -45 0 -58 10 -255 204 -169 165 -182 189 -148 251 20 38
52 55 101 55 32 0 49 -12 163 -125 l128 -125 79 79 c43 43 219 219 389 391
265 266 327 325 354 329 2 1 18 -8 36 -19z"/>
<path d="M1379 1438 c-1 -1 -2 -61 -3 -131 -1 -107 1 -127 13 -125 8 2 16 15
16 30 3 46 55 77 55 32 0 -8 4 -14 8 -14 5 0 14 -11 20 -25 7 -15 20 -25 33
-25 21 0 21 0 -3 33 -13 17 -30 44 -37 60 -14 26 -13 29 19 62 30 31 32 35 13
35 -12 0 -33 -15 -49 -36 -52 -65 -60 -62 -59 23 0 53 -4 78 -12 80 -7 3 -14
3 -14 1z"/>
<path d="M2036 1415 c-10 -15 -15 -33 -12 -40 2 -7 -5 -16 -17 -19 -22 -6 -22
-6 -2 -22 16 -12 20 -27 20 -81 0 -44 4 -68 13 -70 12 -5 17 47 12 120 -1 23
2 27 23 27 14 0 27 7 31 15 4 11 -2 15 -24 15 -17 0 -30 4 -30 9 0 25 15 41
37 41 32 0 25 24 -9 28 -18 2 -30 -4 -42 -23z"/>
<path d="M1585 1347 c-18 -15 -28 -36 -32 -64 -5 -37 -2 -45 25 -73 78 -77
198 12 147 111 -27 51 -96 65 -140 26z m98 -20 c10 -6 19 -29 21 -50 3 -29 -1
-41 -17 -52 -45 -31 -94 -16 -103 31 -12 66 48 109 99 71z"/>
<path d="M1789 1368 c-3 -12 -4 -157 -1 -170 2 -10 10 -18 18 -18 9 0 12 14
10 53 -4 68 15 107 52 107 47 0 57 -14 58 -82 3 -81 2 -78 18 -78 11 0 13 17
12 77 -2 66 -6 79 -25 95 -28 22 -60 23 -87 3 -25 -19 -35 -19 -28 0 4 9 0 15
-10 15 -9 0 -16 -1 -17 -2z"/>
<path d="M2143 1358 c-38 -18 -26 -29 26 -22 43 6 50 4 60 -14 16 -31 15 -32
-32 -32 -53 0 -87 -22 -87 -57 0 -45 54 -67 102 -42 15 8 22 8 28 -1 16 -27
26 2 25 71 -1 62 -5 75 -24 91 -26 20 -64 22 -98 6z m97 -105 c0 -23 -25 -43
-54 -43 -32 0 -66 24 -53 37 16 16 107 21 107 6z"/>
<path d="M2329 1340 c0 -16 -1 -48 -1 -70 0 -83 2 -90 18 -90 13 0 15 7 12 31
-13 85 28 149 80 126 22 -10 24 -15 26 -102 1 -36 5 -51 17 -53 12 -2 15 7 14
50 -3 70 16 108 54 108 41 0 54 -22 55 -93 1 -47 5 -62 17 -65 13 -2 15 9 13
73 -2 65 -6 79 -25 96 -12 10 -30 19 -40 19 -25 0 -69 -21 -69 -33 0 -6 -10
-1 -23 11 -27 26 -64 28 -95 6 -20 -14 -22 -14 -22 0 0 31 -30 17 -31 -14z"/>
</g>
</svg>
